<!--?xml version="1.0" standalone="no"?-->
              <svg id="sw-js-blob-svg" viewBox="0 0 100 100" xmlns="http://www.w3.org/2000/svg" version="1.1">
                    <defs> 
                        <linearGradient id="sw-gradient" x1="0" x2="1" y1="1" y2="0">
                            <stop id="stop1" stop-color="rgba(30, 30, 30, 1)" offset="0%"></stop>
                            <stop id="stop2" stop-color="rgba(30, 30, 30, 1)" offset="100%"></stop>
                        </linearGradient>
                    </defs>
                <path fill="url(#sw-gradient)" d="M20.3,-23.8C26.5,-19,32,-12.8,35,-4.8C38,3.1,38.5,12.8,34.2,19.1C29.8,25.3,20.5,28,11.4,31.2C2.4,34.4,-6.4,38,-14.1,36.3C-21.8,34.5,-28.4,27.4,-31.1,19.5C-33.9,11.6,-32.7,3,-30.2,-4.3C-27.7,-11.7,-23.9,-17.9,-18.7,-22.9C-13.4,-27.9,-6.7,-31.8,0.2,-32C7,-32.2,14.1,-28.6,20.3,-23.8Z" width="100%" height="100%" transform="translate(50 50)" stroke-width="0" style="transition: all 0.3s ease 0s;" stroke="url(#sw-gradient)"></path>
              </svg>