<!--?xml version="1.0" standalone="no"?-->
              <svg id="sw-js-blob-svg" viewBox="0 0 100 100" xmlns="http://www.w3.org/2000/svg" version="1.1">
                    <defs> 
                        <linearGradient id="sw-gradient" x1="0" x2="1" y1="1" y2="0">
                            <stop id="stop1" stop-color="rgba(159.446, 56.768, 102.202, 1)" offset="0%"></stop>
                            <stop id="stop2" stop-color="rgba(80.946, 168.553, 140.361, 1)" offset="100%"></stop>
                        </linearGradient>
                    </defs>
                <path fill="url(#sw-gradient)" d="M26.1,-31.5C33.3,-25,38.3,-16.3,39.8,-7.2C41.3,2,39.1,11.7,33.8,18.2C28.5,24.6,19.9,27.9,11.5,30.3C3.2,32.8,-5,34.4,-11.5,31.9C-18.1,29.4,-23.1,22.8,-28.7,15.4C-34.4,8,-40.8,-0.2,-39.9,-7.4C-39.1,-14.6,-30.9,-20.9,-23.1,-27.2C-15.2,-33.5,-7.6,-39.8,0.9,-40.9C9.4,-42,18.9,-37.9,26.1,-31.5Z" width="100%" height="100%" transform="translate(50 50)" stroke-width="0" style="transition: all 0.3s ease 0s;" stroke="url(#sw-gradient)"></path>
              </svg>